# xmcd
#
# Track frame offsets: 
#        150
#        19350
#        34050
#        53100
#        70275
#        88927
#        106073
#        121275
#        140616
#        159959
#        178559
#
# Disc length: 2578 seconds
#
# Revision: 1
# Processed by: cddbd v1.5.2PL0 Copyright (c) Steve Scherf et al.
# Submitted via: ExactAudioCopy v0.95b4
#
DISCID=910a100b
DTITLE=ฝน ธนสุนทร - หัวใจฝากถาม
DYEAR=2006
DGENRE=Country
TTITLE0=มันสว'ี
TTITLE1=คำรักอย่าฝากบอก
TTITLE2=หัวใจฝากถาม
TTITLE3=ต้อนรับกลับห้องใจ
TTITLE4=ผู้หวังดีที่หายไป
TTITLE5=เธอคือผู้รู้ใจ
TTITLE6=รักแท้หรือแค่กิ๊ก
TTITLE7=ฉันคือตัวอย่าง
TTITLE8=เบื่อหน้าก็อย่าทน
TTITLE9=ที่พึ่งสุดท้าย
TTITLE10=จูบแล้วลา
EXTD=
EXTT0=
EXTT1=
EXTT2=
EXTT3=
EXTT4=
EXTT5=
EXTT6=
EXTT7=
EXTT8=
EXTT9=
EXTT10=
PLAYORDER=
